<svg id="Capa_1" data-name="Capa 1" xmlns="http://www.w3.org/2000/svg" viewBox="0 0 1229.41 198.79"><defs><style>.cls-1{fill:#828282;}</style></defs><path class="cls-1" d="M144.92,220.06H124.36v-71.7H46.16v71.7H25.71V65H46.16v66.69h78.2V65h20.56ZM367,179.58H302l-14.59,40.48H266.33L325.56,65h17.9L402.8,220.06h-21Zm-58.81-16.84h52.74L334.51,90.19ZM344.63,23.4h23.86L339.94,54.72H324.07ZM521.86,220.06V65h50.71q25.24,0,37.93,10.44t12.78,30.89a31.71,31.71,0,0,1-6.18,19.28,40.21,40.21,0,0,1-16.83,12.89,35.69,35.69,0,0,1,19.82,13.43q7.35,9.8,7.35,23.44,0,20.88-13.53,32.81t-38.25,11.93Zm20.46-72.55v55.82h33.77q14.26,0,22.48-7.35t8.31-20.45q0-28-30.47-28Zm0-16.41h30.89q13.42,0,21.41-6.71t8.1-18.22q0-12.78-7.46-18.53t-22.69-5.86H542.32Zm235.61,89H757.47V65h20.46ZM1017.59,81.78H967.73V220.06H947.38V81.78H897.63V65h120Zm237.53,65.73q0,22.8-7.67,39.84t-21.74,25.89q-14.06,9-32.81,8.95-18.32,0-32.49-8.95t-22.05-25.67q-7.78-16.73-8-38.67V137.71q0-22.38,7.77-39.53T1160.09,72q14.28-9.16,32.6-9.16,18.64,0,32.81,9.05t22,26.1q7.66,17.06,7.67,39.74Zm-20.35-10q0-27.6-11.08-42.3t-31-14.81q-19.39,0-30.58,14.81t-11.4,40.91v11.4q0,26.75,11.19,42.08t31,15.24q19.81,0,30.68-14.39T1234.77,149Z" transform="translate(-25.71 -23.4)"/></svg>