<svg width="407" height="66" viewBox="0 0 407 66" fill="none" xmlns="http://www.w3.org/2000/svg">
<g filter="url(#filter0_i_403_86)">
<path d="M34.3906 35.8203V41.3398H6.6875V35.8203H34.3906ZM7.74219 13.8125V65H0.957031V13.8125H7.74219ZM40.2969 13.8125V65H33.5469V13.8125H40.2969ZM104.338 18.3477L87.3922 65H80.4664L99.9781 13.8125H104.443L104.338 18.3477ZM118.541 65L101.56 18.3477L101.455 13.8125H105.92L125.502 65H118.541ZM117.662 46.0508V51.6055H88.9039V46.0508H117.662ZM99.4859 10.4023L106.306 0.0664062H114.146L104.724 10.4023H99.4859ZM183.003 41.0586H170.03L169.96 35.6094H181.738C183.683 35.6094 185.382 35.2812 186.835 34.625C188.288 33.9688 189.413 33.0312 190.21 31.8125C191.03 30.5703 191.441 29.0938 191.441 27.3828C191.441 25.5078 191.077 23.9844 190.351 22.8125C189.648 21.6172 188.558 20.75 187.081 20.2109C185.628 19.6484 183.777 19.3672 181.527 19.3672H171.542V65H164.757V13.8125H181.527C184.152 13.8125 186.495 14.082 188.558 14.6211C190.62 15.1367 192.366 15.957 193.796 17.082C195.249 18.1836 196.351 19.5898 197.101 21.3008C197.851 23.0117 198.226 25.0625 198.226 27.4531C198.226 29.5625 197.687 31.4727 196.609 33.1836C195.53 34.8711 194.03 36.2539 192.109 37.332C190.21 38.4102 187.984 39.1016 185.429 39.4062L183.003 41.0586ZM182.687 65H167.359L171.191 59.4805H182.687C184.843 59.4805 186.671 59.1055 188.171 58.3555C189.695 57.6055 190.855 56.5508 191.652 55.1914C192.448 53.8086 192.847 52.1797 192.847 50.3047C192.847 48.4062 192.507 46.7656 191.827 45.3828C191.148 44 190.081 42.9336 188.628 42.1836C187.175 41.4336 185.3 41.0586 183.003 41.0586H173.335L173.405 35.6094H186.624L188.066 37.5781C190.527 37.7891 192.613 38.4922 194.323 39.6875C196.034 40.8594 197.335 42.3594 198.226 44.1875C199.14 46.0156 199.597 48.0312 199.597 50.2344C199.597 53.4219 198.894 56.1172 197.488 58.3203C196.105 60.5 194.148 62.1641 191.616 63.3125C189.085 64.4375 186.109 65 182.687 65ZM249.294 13.8125V65H242.509V13.8125H249.294ZM311.893 13.8125V65H305.213V13.8125H311.893ZM328.346 13.8125V19.3672H288.795V13.8125H328.346ZM406.766 37.7891V41.0234C406.766 44.8672 406.285 48.3125 405.324 51.3594C404.363 54.4062 402.98 56.9961 401.176 59.1289C399.371 61.2617 397.203 62.8906 394.672 64.0156C392.164 65.1406 389.352 65.7031 386.234 65.7031C383.211 65.7031 380.434 65.1406 377.902 64.0156C375.395 62.8906 373.215 61.2617 371.363 59.1289C369.535 56.9961 368.117 54.4062 367.109 51.3594C366.102 48.3125 365.598 44.8672 365.598 41.0234V37.7891C365.598 33.9453 366.09 30.5117 367.074 27.4883C368.082 24.4414 369.5 21.8516 371.328 19.7188C373.156 17.5625 375.324 15.9219 377.832 14.7969C380.363 13.6719 383.141 13.1094 386.164 13.1094C389.281 13.1094 392.094 13.6719 394.602 14.7969C397.133 15.9219 399.301 17.5625 401.105 19.7188C402.934 21.8516 404.328 24.4414 405.289 27.4883C406.273 30.5117 406.766 33.9453 406.766 37.7891ZM400.051 41.0234V37.7188C400.051 34.6719 399.734 31.9766 399.102 29.6328C398.492 27.2891 397.59 25.3203 396.395 23.7266C395.199 22.1328 393.734 20.9258 392 20.1055C390.289 19.2852 388.344 18.875 386.164 18.875C384.055 18.875 382.145 19.2852 380.434 20.1055C378.746 20.9258 377.293 22.1328 376.074 23.7266C374.879 25.3203 373.953 27.2891 373.297 29.6328C372.641 31.9766 372.312 34.6719 372.312 37.7188V41.0234C372.312 44.0938 372.641 46.8125 373.297 49.1797C373.953 51.5234 374.891 53.5039 376.109 55.1211C377.352 56.7148 378.816 57.9219 380.504 58.7422C382.215 59.5625 384.125 59.9727 386.234 59.9727C388.438 59.9727 390.395 59.5625 392.105 58.7422C393.816 57.9219 395.258 56.7148 396.43 55.1211C397.625 53.5039 398.527 51.5234 399.137 49.1797C399.746 46.8125 400.051 44.0938 400.051 41.0234Z" fill="white"/>
</g>
<defs>
<filter id="filter0_i_403_86" x="0.957031" y="0.0664062" width="405.809" height="69.6367" filterUnits="userSpaceOnUse" color-interpolation-filters="sRGB">
<feFlood flood-opacity="0" result="BackgroundImageFix"/>
<feBlend mode="normal" in="SourceGraphic" in2="BackgroundImageFix" result="shape"/>
<feColorMatrix in="SourceAlpha" type="matrix" values="0 0 0 0 0 0 0 0 0 0 0 0 0 0 0 0 0 0 127 0" result="hardAlpha"/>
<feOffset dy="4"/>
<feGaussianBlur stdDeviation="2"/>
<feComposite in2="hardAlpha" operator="arithmetic" k2="-1" k3="1"/>
<feColorMatrix type="matrix" values="0 0 0 0 0 0 0 0 0 0 0 0 0 0 0 0 0 0 0.25 0"/>
<feBlend mode="normal" in2="shape" result="effect1_innerShadow_403_86"/>
</filter>
</defs>
</svg>
