<svg width="227" height="38" viewBox="0 0 227 38" fill="none" xmlns="http://www.w3.org/2000/svg">
<g filter="url(#filter0_i_128_532)">
<path d="M19.3281 20.7891V23.8555H3.9375V20.7891H19.3281ZM4.52344 8.5625V37H0.753906V8.5625H4.52344ZM22.6094 8.5625V37H18.8594V8.5625H22.6094ZM58.1875 11.082L48.7734 37H44.9258L55.7656 8.5625H58.2461L58.1875 11.082ZM66.0781 37L56.6445 11.082L56.5859 8.5625H59.0664L69.9453 37H66.0781ZM65.5898 26.4727V29.5586H49.6133V26.4727H65.5898ZM55.4922 6.66797L59.2812 0.925781H63.6367L58.4023 6.66797H55.4922ZM101.891 23.6992H94.6836L94.6445 20.6719H101.188C102.268 20.6719 103.212 20.4896 104.02 20.125C104.827 19.7604 105.452 19.2396 105.895 18.5625C106.35 17.8724 106.578 17.0521 106.578 16.1016C106.578 15.0599 106.376 14.2135 105.973 13.5625C105.582 12.8984 104.977 12.4167 104.156 12.1172C103.349 11.8047 102.32 11.6484 101.07 11.6484H95.5234V37H91.7539V8.5625H101.07C102.529 8.5625 103.831 8.71224 104.977 9.01172C106.122 9.29818 107.092 9.75391 107.887 10.3789C108.694 10.9909 109.306 11.7721 109.723 12.7227C110.139 13.6732 110.348 14.8125 110.348 16.1406C110.348 17.3125 110.048 18.3737 109.449 19.3242C108.85 20.2617 108.017 21.0299 106.949 21.6289C105.895 22.2279 104.658 22.612 103.238 22.7812L101.891 23.6992ZM101.715 37H93.1992L95.3281 33.9336H101.715C102.913 33.9336 103.928 33.7253 104.762 33.3086C105.608 32.8919 106.253 32.306 106.695 31.5508C107.138 30.7826 107.359 29.8776 107.359 28.8359C107.359 27.7812 107.171 26.8698 106.793 26.1016C106.415 25.3333 105.823 24.7409 105.016 24.3242C104.208 23.9076 103.167 23.6992 101.891 23.6992H96.5195L96.5586 20.6719H103.902L104.703 21.7656C106.07 21.8828 107.229 22.2734 108.18 22.9375C109.13 23.5885 109.853 24.4219 110.348 25.4375C110.855 26.4531 111.109 27.5729 111.109 28.7969C111.109 30.5677 110.719 32.0651 109.938 33.2891C109.169 34.5 108.082 35.4245 106.676 36.0625C105.27 36.6875 103.616 37 101.715 37ZM138.719 8.5625V37H134.949V8.5625H138.719ZM173.496 8.5625V37H169.785V8.5625H173.496ZM182.637 8.5625V11.6484H160.664V8.5625H182.637ZM226.203 21.8828V23.6797C226.203 25.8151 225.936 27.7292 225.402 29.4219C224.868 31.1146 224.1 32.5534 223.098 33.7383C222.095 34.9232 220.891 35.8281 219.484 36.4531C218.091 37.0781 216.529 37.3906 214.797 37.3906C213.117 37.3906 211.574 37.0781 210.168 36.4531C208.775 35.8281 207.564 34.9232 206.535 33.7383C205.52 32.5534 204.732 31.1146 204.172 29.4219C203.612 27.7292 203.332 25.8151 203.332 23.6797V21.8828C203.332 19.7474 203.605 17.8398 204.152 16.1602C204.712 14.4674 205.5 13.0286 206.516 11.8438C207.531 10.6458 208.736 9.73438 210.129 9.10938C211.535 8.48438 213.078 8.17188 214.758 8.17188C216.49 8.17188 218.052 8.48438 219.445 9.10938C220.852 9.73438 222.056 10.6458 223.059 11.8438C224.074 13.0286 224.849 14.4674 225.383 16.1602C225.93 17.8398 226.203 19.7474 226.203 21.8828ZM222.473 23.6797V21.8438C222.473 20.151 222.297 18.6536 221.945 17.3516C221.607 16.0495 221.105 14.9557 220.441 14.0703C219.777 13.1849 218.964 12.5143 218 12.0586C217.049 11.6029 215.969 11.375 214.758 11.375C213.586 11.375 212.525 11.6029 211.574 12.0586C210.637 12.5143 209.829 13.1849 209.152 14.0703C208.488 14.9557 207.974 16.0495 207.609 17.3516C207.245 18.6536 207.062 20.151 207.062 21.8438V23.6797C207.062 25.3854 207.245 26.8958 207.609 28.2109C207.974 29.513 208.495 30.6133 209.172 31.5117C209.862 32.3971 210.676 33.0677 211.613 33.5234C212.564 33.9792 213.625 34.207 214.797 34.207C216.021 34.207 217.108 33.9792 218.059 33.5234C219.009 33.0677 219.81 32.3971 220.461 31.5117C221.125 30.6133 221.626 29.513 221.965 28.2109C222.303 26.8958 222.473 25.3854 222.473 23.6797Z" fill="#3D3D3D"/>
</g>
<defs>
<filter id="filter0_i_128_532" x="0.753906" y="0.925781" width="225.449" height="40.4648" filterUnits="userSpaceOnUse" color-interpolation-filters="sRGB">
<feFlood flood-opacity="0" result="BackgroundImageFix"/>
<feBlend mode="normal" in="SourceGraphic" in2="BackgroundImageFix" result="shape"/>
<feColorMatrix in="SourceAlpha" type="matrix" values="0 0 0 0 0 0 0 0 0 0 0 0 0 0 0 0 0 0 127 0" result="hardAlpha"/>
<feOffset dy="4"/>
<feGaussianBlur stdDeviation="2"/>
<feComposite in2="hardAlpha" operator="arithmetic" k2="-1" k3="1"/>
<feColorMatrix type="matrix" values="0 0 0 0 0 0 0 0 0 0 0 0 0 0 0 0 0 0 0.25 0"/>
<feBlend mode="normal" in2="shape" result="effect1_innerShadow_128_532"/>
</filter>
</defs>
</svg>
